<svg width="17" height="17" viewBox="0 0 17 17" fill="none" xmlns="http://www.w3.org/2000/svg">
<path d="M14.875 8.5C14.875 10.1908 14.2033 11.8123 13.0078 13.0078C11.8123 14.2033 10.1908 14.875 8.5 14.875M14.875 8.5C14.875 6.80924 14.2033 5.18774 13.0078 3.99219C11.8123 2.79665 10.1908 2.125 8.5 2.125M14.875 8.5H2.125M8.5 14.875C6.80924 14.875 5.18774 14.2033 3.99219 13.0078C2.79665 11.8123 2.125 10.1908 2.125 8.5M8.5 14.875C9.67371 14.875 10.625 12.0204 10.625 8.5C10.625 4.97958 9.67371 2.125 8.5 2.125M8.5 14.875C7.32629 14.875 6.375 12.0204 6.375 8.5C6.375 4.97958 7.32629 2.125 8.5 2.125M8.5 2.125C6.80924 2.125 5.18774 2.79665 3.99219 3.99219C2.79665 5.18774 2.125 6.80924 2.125 8.5" stroke="black" stroke-width="2" stroke-linecap="round" stroke-linejoin="round"/>
</svg>
