<svg width="17" height="17" viewBox="0 0 17 17" fill="none" xmlns="http://www.w3.org/2000/svg">
<path d="M14.8011 2.19805C14.4823 1.87935 14.05 1.70032 13.5992 1.70032C13.1484 1.70032 12.7161 1.87935 12.3973 2.19805L5.94922 8.64615V11.05H8.35302L14.8011 4.60185C15.1198 4.28306 15.2989 3.85073 15.2989 3.39995C15.2989 2.94918 15.1198 2.51685 14.8011 2.19805Z" fill="#7E7E7E"/>
<path fill-rule="evenodd" clip-rule="evenodd" d="M1.69922 5.10002C1.69922 4.64916 1.87833 4.21675 2.19714 3.89794C2.51595 3.57913 2.94835 3.40002 3.39922 3.40002H6.79922C7.02465 3.40002 7.24085 3.48958 7.40026 3.64898C7.55967 3.80839 7.64922 4.02459 7.64922 4.25002C7.64922 4.47546 7.55967 4.69166 7.40026 4.85106C7.24085 5.01047 7.02465 5.10002 6.79922 5.10002H3.39922V13.6H11.8992V10.2C11.8992 9.97459 11.9888 9.75839 12.1482 9.59898C12.3076 9.43958 12.5238 9.35002 12.7492 9.35002C12.9747 9.35002 13.1909 9.43958 13.3503 9.59898C13.5097 9.75839 13.5992 9.97459 13.5992 10.2V13.6C13.5992 14.0509 13.4201 14.4833 13.1013 14.8021C12.7825 15.1209 12.3501 15.3 11.8992 15.3H3.39922C2.94835 15.3 2.51595 15.1209 2.19714 14.8021C1.87833 14.4833 1.69922 14.0509 1.69922 13.6V5.10002Z" fill="#7E7E7E"/>
</svg>
