<svg width="17" height="17" viewBox="0 0 17 17" fill="none" xmlns="http://www.w3.org/2000/svg">
<path fill-rule="evenodd" clip-rule="evenodd" d="M7.65078 1.69995C7.49297 1.70004 7.33829 1.74405 7.20408 1.82707C7.06987 1.91009 6.96142 2.02883 6.89088 2.17L6.27548 3.39995H3.40078C3.17535 3.39995 2.95915 3.4895 2.79974 3.64891C2.64033 3.80832 2.55078 4.02452 2.55078 4.24995C2.55078 4.47539 2.64033 4.69159 2.79974 4.85099C2.95915 5.0104 3.17535 5.09995 3.40078 5.09995V13.6C3.40078 14.0508 3.57989 14.4832 3.8987 14.802C4.21751 15.1208 4.64991 15.3 5.10078 15.3H11.9008C12.3516 15.3 12.784 15.1208 13.1029 14.802C13.4217 14.4832 13.6008 14.0508 13.6008 13.6V5.09995C13.8262 5.09995 14.0424 5.0104 14.2018 4.85099C14.3612 4.69159 14.4508 4.47539 14.4508 4.24995C14.4508 4.02452 14.3612 3.80832 14.2018 3.64891C14.0424 3.4895 13.8262 3.39995 13.6008 3.39995H10.7261L10.1107 2.17C10.0401 2.02883 9.93169 1.91009 9.79748 1.82707C9.66327 1.74405 9.50859 1.70004 9.35078 1.69995H7.65078ZM5.95078 6.79995C5.95078 6.57452 6.04033 6.35832 6.19974 6.19891C6.35915 6.03951 6.57535 5.94995 6.80078 5.94995C7.02622 5.94995 7.24242 6.03951 7.40182 6.19891C7.56123 6.35832 7.65078 6.57452 7.65078 6.79995V11.9C7.65078 12.1254 7.56123 12.3416 7.40182 12.501C7.24242 12.6604 7.02622 12.75 6.80078 12.75C6.57535 12.75 6.35915 12.6604 6.19974 12.501C6.04033 12.3416 5.95078 12.1254 5.95078 11.9V6.79995ZM10.2008 5.94995C9.97535 5.94995 9.75915 6.03951 9.59974 6.19891C9.44033 6.35832 9.35078 6.57452 9.35078 6.79995V11.9C9.35078 12.1254 9.44033 12.3416 9.59974 12.501C9.75915 12.6604 9.97535 12.75 10.2008 12.75C10.4262 12.75 10.6424 12.6604 10.8018 12.501C10.9612 12.3416 11.0508 12.1254 11.0508 11.9V6.79995C11.0508 6.57452 10.9612 6.35832 10.8018 6.19891C10.6424 6.03951 10.4262 5.94995 10.2008 5.94995Z" fill="#DC3545"/>
</svg>
